<svg xmlns="http://www.w3.org/2000/svg" width="1024" height="1024" viewBox="0 0 1024 1024">
<g>
<path d="M 0.50 1024.00 L 0.75 512.75 L 1.00 1.00 L 512.75 0.75 L 1024.00 0.50 L 1024.00 1024.00 L 0.50 1024.00 ZM 787.50 755.70 C829.85,778.95 864.75,797.99 865.05,797.99 C865.35,798.00 855.31,761.98 842.75,717.95 L 819.91 637.91 L 826.12 630.20 C846.42,605.03 859.27,578.26 865.18,548.83 C868.46,532.52 868.46,504.48 865.18,488.17 C858.06,452.68 841.58,422.09 814.53,394.13 C782.39,360.92 738.74,336.47 688.40,323.48 C660.49,316.28 638.39,313.66 606.00,313.73 C579.43,313.78 560.86,315.64 538.76,320.43 C448.60,340.02 378.29,395.66 354.98,465.90 C340.84,508.52 343.52,550.17 363.02,590.79 C373.31,612.20 384.30,627.49 402.41,645.56 C421.08,664.19 441.97,679.26 466.00,691.43 C509.28,713.36 556.03,724.24 607.00,724.24 C637.98,724.24 661.73,721.15 690.89,713.33 C704.20,709.76 704.31,709.75 707.39,711.58 C709.10,712.59 745.15,732.44 787.50,755.70 ZM 181.50 709.75 C180.83,711.65 181.62,711.37 190.90,706.33 C230.06,685.05 339.70,624.62 340.45,623.91 C342.25,622.19 344.96,623.02 364.92,631.37 C375.93,635.97 385.13,639.53 385.38,639.29 C385.63,639.04 382.89,635.20 379.30,630.76 C361.20,608.34 348.08,580.75 341.84,552.00 C339.84,542.78 339.56,538.70 339.56,518.50 C339.56,498.32 339.84,494.21 341.84,485.00 C348.32,455.08 362.71,425.69 382.43,402.10 C392.29,390.30 410.35,373.28 423.00,363.85 C462.65,334.31 509.22,316.01 564.00,308.45 C578.07,306.51 619.21,305.49 631.50,306.77 C636.45,307.29 640.88,307.50 641.35,307.24 C642.51,306.58 632.38,296.35 621.50,287.20 C584.94,256.44 534.06,235.96 475.38,228.39 C458.06,226.16 420.47,226.17 402.14,228.41 C343.39,235.60 293.43,255.77 252.22,288.92 C241.60,297.47 224.17,315.02 216.89,324.50 C202.20,343.62 190.59,366.50 184.68,388.00 C180.25,404.08 179.53,410.18 179.53,431.50 C179.53,449.72 179.84,453.95 181.87,463.47 C187.98,492.11 200.46,517.95 219.59,541.60 L 226.96 550.71 L 204.45 629.60 C192.07,673.00 181.74,709.06 181.50,709.75 ZM 574.95 624.34 C560.82,628.44 558.33,628.48 545.00,624.82 C511.33,615.58 483.19,591.07 466.45,556.41 C451.80,526.06 444.00,488.15 444.00,447.36 C444.00,433.22 444.22,430.85 445.60,430.32 C446.48,429.98 451.09,430.31 455.85,431.04 C484.12,435.37 518.01,427.26 550.06,408.46 C554.25,406.01 558.41,404.00 559.32,404.00 C560.22,404.00 563.55,405.66 566.72,407.68 C575.58,413.35 593.31,421.40 605.71,425.39 C626.13,431.94 644.63,433.81 662.15,431.06 C666.91,430.32 671.58,430.01 672.54,430.38 C674.15,431.00 674.24,432.74 673.71,453.27 C673.32,467.86 672.42,480.14 671.07,489.00 C659.93,562.30 626.46,609.41 574.95,624.34 ZM 544.00 546.75 C544.00,547.69 547.65,548.00 558.94,548.00 C567.16,548.00 574.12,547.61 574.42,547.13 C574.71,546.65 572.72,536.55 569.99,524.67 C565.37,504.53 564.84,500.00 567.12,500.00 C569.15,500.00 571.99,493.39 572.00,488.65 C572.00,484.47 571.53,483.33 568.60,480.40 C565.55,477.35 564.62,477.00 559.68,477.00 C555.23,477.00 553.57,477.49 551.14,479.53 C545.18,484.55 544.73,492.36 550.07,498.08 C551.68,499.80 553.00,502.25 553.00,503.52 C553.00,504.78 550.98,514.75 548.50,525.66 C546.03,536.57 544.00,546.06 544.00,546.75 ZM 0.00 0.00 L 1024.00 0.00 L 1024.00 0.50 L 0.00 0.00 L 0.50 1024.00 L 0.00 1024.00 Z" fill="rgb(0,0,0)"/>
<path d="M 0.00 0.00 L 1024.00 0.50 L 1024.00 0.50 L 512.75 0.75 L 1.00 1.00 L 0.75 512.75 L 0.50 1024.00 L 0.50 1024.00 Z" fill="rgb(41,41,41)"/>
<path d="M 787.50 755.70 C745.15,732.44 709.10,712.59 707.39,711.58 C704.31,709.75 704.20,709.76 690.89,713.33 C661.73,721.15 637.98,724.24 607.00,724.24 C556.03,724.24 509.28,713.36 466.00,691.43 C441.97,679.26 421.08,664.19 402.41,645.56 C384.30,627.49 373.31,612.20 363.02,590.79 C343.52,550.17 340.84,508.52 354.98,465.90 C378.29,395.66 448.60,340.02 538.76,320.43 C560.86,315.64 579.43,313.78 606.00,313.73 C638.39,313.66 660.49,316.28 688.40,323.48 C738.74,336.47 782.39,360.92 814.53,394.13 C841.58,422.09 858.06,452.68 865.18,488.17 C868.46,504.48 868.46,532.52 865.18,548.83 C859.27,578.26 846.42,605.03 826.12,630.20 L 819.91 637.91 L 842.75 717.95 C855.31,761.98 865.35,798.00 865.05,797.99 C864.75,797.99 829.85,778.95 787.50,755.70 ZM 574.95 624.34 C626.46,609.41 659.93,562.30 671.07,489.00 C672.42,480.14 673.32,467.86 673.71,453.27 C674.24,432.74 674.15,431.00 672.54,430.38 C671.58,430.01 666.91,430.32 662.15,431.06 C644.63,433.81 626.13,431.94 605.71,425.39 C593.31,421.40 575.58,413.35 566.72,407.68 C563.55,405.66 560.22,404.00 559.32,404.00 C558.41,404.00 554.25,406.01 550.06,408.46 C518.01,427.26 484.12,435.37 455.85,431.04 C451.09,430.31 446.48,429.98 445.60,430.32 C444.22,430.85 444.00,433.22 444.00,447.36 C444.00,488.15 451.80,526.06 466.45,556.41 C483.19,591.07 511.33,615.58 545.00,624.82 C558.33,628.48 560.82,628.44 574.95,624.34 ZM 181.50 709.75 C181.74,709.06 192.07,673.00 204.45,629.60 L 226.96 550.71 L 219.59 541.60 C200.46,517.95 187.98,492.11 181.87,463.47 C179.84,453.95 179.53,449.72 179.53,431.50 C179.53,410.18 180.25,404.08 184.68,388.00 C190.59,366.50 202.20,343.62 216.89,324.50 C224.17,315.02 241.60,297.47 252.22,288.92 C293.43,255.77 343.39,235.60 402.14,228.41 C420.47,226.17 458.06,226.16 475.38,228.39 C534.06,235.96 584.94,256.44 621.50,287.20 C632.38,296.35 642.51,306.58 641.35,307.24 C640.88,307.50 636.45,307.29 631.50,306.77 C619.21,305.49 578.07,306.51 564.00,308.45 C509.22,316.01 462.65,334.31 423.00,363.85 C410.35,373.28 392.29,390.30 382.43,402.10 C362.71,425.69 348.32,455.08 341.84,485.00 C339.84,494.21 339.56,498.32 339.56,518.50 C339.56,538.70 339.84,542.78 341.84,552.00 C348.08,580.75 361.20,608.34 379.30,630.76 C382.89,635.20 385.63,639.04 385.38,639.29 C385.13,639.53 375.93,635.97 364.92,631.37 C344.96,623.02 342.25,622.19 340.45,623.91 C339.70,624.62 230.06,685.05 190.90,706.33 C181.62,711.37 180.83,711.65 181.50,709.75 ZM 544.00 546.75 C544.00,546.06 546.03,536.57 548.50,525.66 C550.98,514.75 553.00,504.78 553.00,503.52 C553.00,502.25 551.68,499.80 550.07,498.08 C544.73,492.36 545.18,484.55 551.14,479.53 C553.57,477.49 555.23,477.00 559.68,477.00 C564.62,477.00 565.55,477.35 568.60,480.40 C571.53,483.33 572.00,484.47 572.00,488.65 C571.99,493.39 569.15,500.00 567.12,500.00 C564.84,500.00 565.37,504.53 569.99,524.67 C572.72,536.55 574.71,546.65 574.42,547.13 C574.12,547.61 567.16,548.00 558.94,548.00 C547.65,548.00 544.00,547.69 544.00,546.75 Z" fill="rgb(254,254,254)"/>
</g>
</svg>